<svg width="97" height="39" viewBox="0 0 97 39" fill="none" xmlns="http://www.w3.org/2000/svg">
<path fill-rule="evenodd" clip-rule="evenodd" d="M12.1172 19.3757V16.4979L12.1499 16.4789C11.6371 15.4788 11.4648 14.3204 11.3099 13.2792C11.2737 13.0358 11.2384 12.7987 11.2 12.5716C10.9796 11.2585 10.5596 10.6654 10.4063 10.4493C10.3722 10.3934 10.3776 10.3167 10.4269 10.2717L10.7675 9.97402C10.8276 9.91634 10.9172 9.93245 10.9635 9.99317C11.0186 10.07 11.0901 10.1662 11.1708 10.2747C11.4801 10.6907 11.9231 11.2866 12.0843 11.6548C12.1855 11.8811 12.3173 11.6944 12.1792 11.3773C12.1663 11.3477 12.1518 11.3134 12.1354 11.2748C11.9765 10.9004 11.6483 10.127 11.0382 9.40064C10.3654 8.59956 9.32715 7.65247 8.22751 7.53137C7.12738 7.40445 6.40033 7.58711 5.54377 8.05598C4.16201 8.81849 3.36058 10.2752 3.12381 10.7056C3.10189 10.7455 3.0848 10.7765 3.07255 10.7974C2.95962 10.9899 3.07006 11.1891 3.19822 11.4203C3.23414 11.4851 3.27145 11.5524 3.30562 11.6228C3.32022 11.6528 3.33735 11.6861 3.35625 11.7228C3.53949 12.0789 3.88906 12.7581 3.71008 13.9529C3.52351 15.227 3.26577 15.5718 3.04219 15.871L3.02249 15.8974C2.79401 16.1976 3.12989 16.1994 3.34555 16.0293C3.56121 15.8591 4.02459 15.1938 4.12281 13.6728C4.22151 12.1576 4.87519 10.4446 6.09608 9.82277C6.84236 9.44502 7.77891 9.37423 8.42046 9.7967C9.06787 10.2187 10.1056 11.2303 10.1755 11.5061C10.2153 11.6608 10.167 11.6166 10.0318 11.4927C9.93102 11.4004 9.78198 11.2638 9.58505 11.1322C9.12326 10.8182 8.21378 10.2182 7.58009 10.1763C6.88157 10.1338 6.24171 10.3738 5.94302 10.6797C5.41057 11.2218 5.0913 12.063 4.94811 13.2534C4.9288 13.4152 4.91193 13.57 4.89579 13.718C4.79262 14.6645 4.71927 15.3373 4.23057 15.8337C4.02203 16.0455 3.81333 16.2262 3.61654 16.3965C3.28002 16.6879 2.97831 16.9491 2.77184 17.2842C2.45048 17.8148 2.17881 18.3766 2.25087 18.8926C2.32293 19.4086 1.94851 19.8673 1.85385 19.5056C1.79498 19.2807 1.83119 19.0207 1.86129 18.8046C1.87958 18.6732 1.89563 18.558 1.88669 18.4767C1.86304 18.2617 1.70043 18.0756 1.65331 18.3609C1.60619 18.6463 1.5162 18.9117 1.36329 19.1998C1.33 19.2664 1.29151 19.3326 1.25454 19.3962C1.12871 19.6125 1.02048 19.7985 1.19484 19.8704C1.41997 19.9575 1.6927 20.1932 1.36171 20.1792C1.36171 20.1792 0.479258 20.2632 0.242737 19.4674C0.056151 18.8552 0.242981 18.1151 0.407309 17.4641C0.456438 17.2695 0.503559 17.0829 0.538085 16.91C0.661216 16.3006 0.51625 16.1784 0.342166 16.0318C0.214775 15.9245 0.0717913 15.804 0.00686396 15.4698C-0.0311175 15.2679 0.0948669 15.0035 0.228593 14.7229C0.316679 14.538 0.408125 14.3461 0.458279 14.1604C0.490803 14.0321 0.567813 13.8554 0.657268 13.6501C0.89776 13.0982 1.22819 12.34 1.02596 11.7624C1.02596 11.7624 0.715059 10.7793 0.67386 10.5657C0.639252 10.3862 0.725449 10.4618 0.874013 10.5919C0.902303 10.6167 0.932854 10.6435 0.965263 10.6708C1.02485 10.7211 1.10575 10.826 1.19373 10.94C1.40492 11.2138 1.6569 11.5404 1.75284 11.2925C1.76814 11.252 1.78713 11.1789 1.8129 11.0797C2.00702 10.3325 2.58569 8.10495 4.86758 7.21412C7.45826 6.20455 9.01449 6.50525 10.3898 7.25469C11.7652 8.00413 12.6645 8.98019 12.6645 8.98019C12.6645 8.98019 12.7667 9.14775 12.4709 9.06054C12.3866 9.0357 12.2818 8.99445 12.1813 8.95483C11.9288 8.8554 11.7026 8.7663 11.8923 8.97303C12.1582 9.26793 13.5598 11.7627 13.8147 12.7094C13.9869 13.3488 14.3306 14.2764 14.6809 15.0107L17.18 13.561C17.7859 12.6311 18.6891 11.9243 19.502 11.2881C19.6897 11.1413 19.8731 10.9977 20.0464 10.8565C21.049 10.039 21.3528 9.38175 21.4661 9.13648L21.4704 9.12728C21.5011 9.07198 21.5631 9.03759 21.6299 9.06145L22.0557 9.22597C22.1283 9.24934 22.1707 9.33384 22.1355 9.40709C22.0919 9.50237 22.0379 9.62734 21.9771 9.76823C21.7736 10.24 21.493 10.8902 21.2648 11.2024C21.1217 11.3959 21.3479 11.4243 21.549 11.1498C21.5706 11.1203 21.5966 11.0859 21.6262 11.0466C21.8718 10.7208 22.3657 10.0654 22.6768 9.18686C23.0314 8.20199 23.3244 6.82927 22.8854 5.79208C22.441 4.7612 21.9292 4.19908 21.1016 3.66283C19.776 2.80391 18.1427 2.78929 17.6417 2.7848C17.59 2.78434 17.5504 2.78398 17.5244 2.78282C17.3055 2.76846 17.188 2.96701 17.0535 3.19424C17.017 3.25595 16.9791 3.31982 16.9377 3.38206C16.9201 3.40804 16.9009 3.43763 16.8797 3.47031C16.668 3.79702 16.2561 4.43263 15.1451 4.85408C13.9408 5.30917 13.5205 5.24335 13.1559 5.18624L13.1343 5.18286C12.7643 5.12518 12.9298 5.41657 13.1807 5.53091C13.4316 5.64524 14.2403 5.73738 15.5889 5.09336C16.9375 4.44934 18.7318 4.20865 19.8687 4.9952C20.556 5.47257 21.0879 6.27932 21.0398 7.05146C20.9926 7.83524 20.6439 9.2477 20.4414 9.43434C20.3236 9.54288 20.3386 9.47395 20.379 9.28823C20.4081 9.15462 20.4503 8.96052 20.4656 8.72867C20.5081 8.17396 20.5703 7.07229 20.2926 6.49103C19.9925 5.85295 19.4719 5.39712 19.0557 5.27872C18.3257 5.06872 17.4466 5.19346 16.3522 5.63488C16.1936 5.69885 16.0433 5.76164 15.9 5.82155C15.0538 6.17512 14.4473 6.42856 13.7864 6.23194C13.5058 6.14847 13.2512 6.05052 13.011 5.95809C12.5894 5.7959 12.2122 5.65075 11.8166 5.63084C11.1956 5.59957 10.5852 5.62608 10.1753 5.9411C9.77135 6.25565 9.19039 6.139 9.45197 5.88303C9.6138 5.72467 9.85318 5.63178 10.053 5.55424C10.1762 5.50645 10.2843 5.4645 10.35 5.41663C10.5159 5.28577 10.6029 5.05582 10.3342 5.15404C10.0655 5.25227 9.79874 5.30342 9.47552 5.31229C9.40385 5.31425 9.33008 5.31178 9.259 5.30939C9.00959 5.30101 8.79337 5.29375 8.81819 5.48337C8.84376 5.72171 8.77902 6.07885 8.63018 5.77437C8.63018 5.77437 8.13328 5.03513 8.69651 4.4378C9.12838 3.97979 9.85257 3.79091 10.4903 3.62458C10.6843 3.57399 10.8702 3.52548 11.0375 3.47212C11.6163 3.2896 11.6493 3.1031 11.689 2.87859C11.7182 2.71343 11.751 2.52771 12.0075 2.30787C12.1607 2.18089 12.4427 2.16642 12.743 2.15101C12.9504 2.14036 13.1667 2.12926 13.3552 2.08028C13.4798 2.04789 13.6682 2.03127 13.8874 2.01193C14.4794 1.9597 15.2965 1.88762 15.6929 1.43153C15.6929 1.43153 16.3914 0.688264 16.5504 0.546233C16.6837 0.432505 16.663 0.543962 16.6274 0.736103C16.6204 0.774079 16.6128 0.815208 16.6057 0.858372C16.5914 0.934743 16.5417 1.05585 16.4877 1.1878C16.3562 1.50859 16.1985 1.89348 16.4583 1.8556C16.5005 1.84944 16.5714 1.83137 16.6672 1.80698C17.4027 1.61955 19.6028 1.05895 21.502 2.66249C23.6425 4.4752 24.1575 6.00461 24.1996 7.58447C24.2359 9.1648 23.8459 10.434 23.8459 10.434C23.8459 10.434 23.7546 10.6116 23.6823 10.3067C23.6615 10.2189 23.6448 10.1041 23.6288 9.99414C23.5892 9.72202 23.5539 9.47943 23.4713 9.74928C23.3495 10.1287 21.9023 12.5752 21.2167 13.2588C20.7954 13.6787 20.2407 14.3397 19.8007 14.9564L22.4581 16.4979V16.6232C23.5047 16.724 24.5142 17.1483 25.4253 17.5311C25.6431 17.6226 25.856 17.7121 26.0616 17.7939C27.2733 18.2696 27.9903 18.2107 28.2541 18.1891L28.2617 18.1885C28.3319 18.1827 28.3948 18.2304 28.4059 18.2939L28.4907 18.7503C28.5033 18.8313 28.4506 18.906 28.3745 18.9122C28.2806 18.9212 28.1617 18.9347 28.0278 18.9499C27.5201 19.0076 26.797 19.0897 26.4059 19.0382C26.168 19.0108 26.256 19.2205 26.5953 19.2631C26.6372 19.2677 26.6875 19.274 26.7455 19.2814C27.1563 19.3334 27.9502 19.4338 28.8406 19.2787C29.8568 19.1017 31.1764 18.677 31.8326 17.7789C32.4883 16.8749 32.6992 16.1481 32.7349 15.1542C32.7902 13.5585 31.9706 12.1165 31.7192 11.6743C31.6937 11.6295 31.6738 11.5944 31.6616 11.5711C31.5628 11.3739 31.3408 11.3678 31.0823 11.3607C31.0085 11.3586 30.9317 11.3565 30.854 11.3499C30.8254 11.3478 30.7936 11.3461 30.7587 11.3443C30.3748 11.3242 29.6211 11.2846 28.6871 10.501C27.7043 9.67643 27.5402 9.27588 27.3976 8.9278L27.3819 8.88969C27.2405 8.53183 27.07 8.82139 27.1048 9.10002C27.1333 9.3733 27.4727 10.1313 28.7046 10.998C29.9423 11.8643 31.058 13.3211 30.9726 14.712C30.9244 15.5545 30.5125 16.4151 29.8282 16.7584C29.1438 17.1018 27.7687 17.4958 27.5026 17.412C27.3491 17.3703 27.4126 17.3501 27.5888 17.294C27.717 17.2531 27.9049 17.1933 28.1123 17.0924C28.6103 16.8464 29.5771 16.3568 29.9277 15.8238C30.3154 15.2408 30.4361 14.5624 30.3244 14.1376C30.1332 13.3909 29.5792 12.6739 28.6465 11.9352C28.5208 11.8356 28.3996 11.7416 28.2835 11.6516C27.5383 11.0737 27.0032 10.6588 26.8294 9.97286C26.7552 9.6789 26.708 9.4018 26.6636 9.14121C26.5874 8.69384 26.5195 8.29505 26.3378 7.94308C26.0499 7.38024 25.7121 6.85666 25.2361 6.6552C24.76 6.45374 24.5657 5.88324 24.916 5.98944C25.1316 6.05478 25.3307 6.21696 25.4976 6.35291C25.6019 6.4379 25.6937 6.51264 25.769 6.54707C25.9644 6.63077 26.1965 6.58831 25.9808 6.40073C25.765 6.21315 25.5824 5.99939 25.4121 5.72013C25.3715 5.6559 25.334 5.58705 25.298 5.52097C25.1777 5.30026 25.0741 5.11037 24.9296 5.226C24.7417 5.37625 24.4038 5.49187 24.5864 5.20718C24.5864 5.20718 24.9558 4.40288 25.7497 4.60178C26.3569 4.75388 26.886 5.29646 27.3523 5.77457C27.4957 5.92166 27.6332 6.06266 27.7652 6.1843C28.218 6.6041 28.3935 6.54077 28.6045 6.46462C28.7592 6.40881 28.9329 6.34612 29.2488 6.46162C29.4416 6.5302 29.6004 6.77644 29.7688 7.03764C29.8814 7.2122 29.9982 7.39343 30.1324 7.53279C30.2185 7.62388 30.3236 7.77437 30.4462 7.94998C30.7925 8.44593 31.2786 9.14224 31.8718 9.26692C31.8718 9.26692 32.8631 9.50243 33.0634 9.574C33.2327 9.63928 33.1232 9.67731 32.9374 9.74191C32.9028 9.75391 32.8657 9.76682 32.8272 9.78098L32.7994 9.80085C32.7295 9.82487 32.6069 9.84094 32.4724 9.85855C32.1329 9.90304 31.718 9.95739 31.8879 10.1745C31.9152 10.2108 31.9704 10.2687 32.0453 10.3473C32.5864 10.9146 34.1591 12.5636 33.7715 15.0107C33.3301 17.7971 32.2933 19.0078 30.9708 19.8256C29.6483 20.6434 28.3698 20.924 28.3698 20.924C28.3698 20.924 28.1753 20.9223 28.3993 20.7105C28.4648 20.6467 28.5563 20.5733 28.6433 20.5034C28.8533 20.3348 29.0373 20.187 28.7674 20.2464C28.3856 20.3304 25.5709 20.2676 24.642 20.0035C24.0659 19.8397 23.211 19.6762 22.4581 19.5951V22.5036L22.3364 22.5743C22.8668 23.5934 23.0362 24.7805 23.1882 25.8464C23.222 26.0831 23.2549 26.3138 23.2907 26.5353C23.5052 27.8489 23.9258 28.4478 24.0791 28.664C24.1131 28.7198 24.1077 28.7965 24.0584 28.8416L23.7119 29.1397C23.6519 29.1974 23.5622 29.1812 23.516 29.1205C23.4574 29.0369 23.379 28.93 23.2904 28.8092C22.9853 28.3931 22.5594 27.8123 22.4064 27.4521C22.3111 27.2254 22.1734 27.4126 22.3115 27.7296C22.3262 27.7633 22.3429 27.8031 22.3619 27.8484C22.5224 28.2296 22.8452 28.9967 23.4412 29.7131C24.1082 30.5146 25.1406 31.4622 26.2412 31.5949C27.3414 31.7219 28.0747 31.5445 28.9318 31.0815C30.2947 30.3452 31.0922 28.9361 31.3526 28.476C31.3831 28.4222 31.4062 28.3814 31.422 28.3561C31.5343 28.1698 31.4265 27.9699 31.3024 27.7396C31.2662 27.6726 31.2287 27.6029 31.1948 27.5303C31.1821 27.5047 31.1677 27.4766 31.1519 27.4458C30.9729 27.0982 30.6216 26.416 30.8084 25.2046C31.0071 23.9155 31.2673 23.5743 31.4923 23.2792L31.5076 23.2591C31.7356 22.9531 31.4002 22.9571 31.1841 23.1214C30.9616 23.2803 30.4929 23.952 30.3883 25.4676C30.2838 26.9833 29.6179 28.6914 28.3907 29.3079C27.6439 29.6798 26.7011 29.7453 26.0649 29.3165C25.4228 28.8882 24.3842 27.8649 24.3206 27.5945C24.2801 27.4372 24.3306 27.4836 24.47 27.612C24.5697 27.7039 24.715 27.8377 24.9052 27.9689C25.367 28.2829 26.2711 28.8891 26.9052 28.9369C27.5989 28.9916 28.2451 28.7569 28.5438 28.451C29.0704 27.9094 29.396 27.0735 29.5508 25.8822C29.5736 25.7084 29.5933 25.5428 29.612 25.3847C29.7211 24.4643 29.7996 23.8024 30.2869 23.3121C30.4975 23.1002 30.7074 22.9195 30.905 22.7495C31.2432 22.4584 31.5451 22.1985 31.752 21.8669C32.0792 21.3358 32.3508 20.7741 32.2788 20.2581C32.2131 19.7474 32.5933 19.2882 32.6821 19.6504C32.7369 19.8737 32.7004 20.1313 32.6699 20.3464C32.651 20.4801 32.6344 20.5973 32.6434 20.6797C32.6612 20.8953 32.8239 21.0813 32.871 20.796C32.9181 20.5107 33.0081 20.2453 33.1551 19.9576C33.1877 19.8962 33.2246 19.835 33.2603 19.7757C33.3921 19.557 33.5074 19.3655 33.3299 19.2924C33.1043 19.1995 32.8374 18.9633 33.1689 18.9831C33.1689 18.9831 34.0465 18.9112 34.2771 19.7075C34.4561 20.3251 34.2629 21.0719 34.0943 21.724C34.0455 21.9126 33.9988 22.0932 33.9638 22.2605C33.8339 22.8659 33.9791 22.9892 34.1526 23.1365C34.2802 23.2448 34.4231 23.3661 34.4833 23.7016C34.5215 23.9066 34.394 24.1697 34.2588 24.4486C34.1693 24.6334 34.0763 24.8251 34.026 25.0115C33.9917 25.1331 33.9174 25.2994 33.831 25.493C33.5845 26.0449 33.2392 26.8181 33.4403 27.4051C33.4403 27.4051 33.74 28.3951 33.7812 28.6087C33.8158 28.7881 33.7296 28.7126 33.581 28.5824C33.5527 28.5576 33.5222 28.5309 33.4898 28.5035C33.4295 28.4526 33.3474 28.3454 33.2583 28.2291C33.048 27.9545 32.7989 27.6292 32.7076 27.8756C32.6914 27.9173 32.6714 27.9923 32.6443 28.0939C32.4432 28.8482 31.8523 31.0641 29.568 31.9384C26.9759 32.9304 25.4187 32.6181 24.0487 31.8624C22.6787 31.1066 21.7906 30.1238 21.7906 30.1238C21.7906 30.1238 21.6884 29.9562 21.9842 30.0434C22.0666 30.0693 22.1684 30.1107 22.2668 30.1508C22.5225 30.2549 22.7553 30.3497 22.5633 30.1368C22.2974 29.8419 20.9128 27.3398 20.6633 26.3868C20.4968 25.7379 20.151 24.7902 19.7999 24.0492L17.2876 25.5099L17.2089 25.4641C16.6242 26.4077 15.7351 27.137 14.9364 27.7921C14.7518 27.9436 14.572 28.0911 14.4019 28.2363C13.4066 29.081 13.1232 29.7459 13.018 29.9928L13.0159 29.9976C12.9915 30.0582 12.9295 30.0926 12.8628 30.0688L12.4379 29.9159C12.3652 29.8925 12.3229 29.808 12.3523 29.7352C12.3811 29.6649 12.4154 29.5786 12.4539 29.4816C12.6447 29.0016 12.9388 28.2617 13.1801 27.92C13.3173 27.727 13.0911 27.6986 12.8963 27.9784C12.8758 28.0079 12.8513 28.0422 12.8234 28.0812C12.5864 28.4128 12.1077 29.0824 11.8119 29.9671C11.4817 30.9617 11.2189 32.3437 11.6803 33.3673C12.1423 34.3968 12.6706 34.9458 13.5085 35.4636C14.852 36.2937 16.4827 36.2729 16.9844 36.2665C17.0367 36.2659 17.0767 36.2654 17.1029 36.266C17.3272 36.2709 17.4419 36.0677 17.5731 35.8356C17.6076 35.7746 17.6432 35.7115 17.6822 35.6498C17.7004 35.6218 17.72 35.59 17.7417 35.555C17.9504 35.2169 18.3474 34.5738 19.4477 34.1331C20.6139 33.6601 21.0408 33.7132 21.4049 33.7585L21.4492 33.764C21.8245 33.8154 21.6533 33.5245 21.397 33.4164C21.1407 33.3084 20.3335 33.2337 18.9989 33.9059C17.6644 34.5781 15.8794 34.8591 14.721 34.0977C14.0171 33.6335 13.4749 32.8451 13.4992 32.0691C13.5293 31.2926 13.8477 29.8709 14.0439 29.6789C14.1566 29.5686 14.1438 29.6331 14.1078 29.814C14.0812 29.9479 14.0419 30.1457 14.0314 30.3836C14.0069 30.9427 13.9682 32.0424 14.2571 32.6169C14.5742 33.2477 15.1051 33.6851 15.5208 33.7977C16.2499 33.9961 17.1334 33.8534 18.2137 33.3838C18.3633 33.319 18.5055 33.2556 18.6414 33.195C19.4919 32.8159 20.0987 32.5454 20.7684 32.7231C21.0582 32.8 21.3206 32.8939 21.5681 32.9823C21.9839 33.1309 22.3572 33.2644 22.746 33.2767C23.3656 33.2905 23.9745 33.2465 24.378 32.9261C24.7757 32.6062 25.3557 32.7112 25.1004 32.9725C24.9442 33.1325 24.7098 33.2286 24.5134 33.309C24.3891 33.36 24.2799 33.4047 24.2156 33.4555C24.0497 33.5863 23.9685 33.8158 24.2372 33.7176C24.4996 33.614 24.7722 33.5624 25.0944 33.5418C25.1691 33.5371 25.2463 33.5375 25.3205 33.5378C25.5667 33.5391 25.7793 33.5401 25.7503 33.3533C25.7184 33.1096 25.771 32.7476 25.9315 33.0511C25.9315 33.0511 26.445 33.7773 25.8944 34.3853C25.4739 34.8498 24.7568 35.0545 24.1252 35.2348C23.93 35.2905 23.7429 35.3439 23.5753 35.402C22.997 35.5981 22.9686 35.7863 22.9345 36.012C22.9095 36.1777 22.8814 36.3635 22.6307 36.5876C22.4797 36.719 22.1957 36.74 21.8932 36.7624C21.6892 36.7775 21.4768 36.7932 21.2912 36.8438C21.1692 36.8771 20.9863 36.8973 20.7733 36.9208C20.182 36.986 19.3596 37.0767 18.9695 37.544C18.9695 37.544 18.2964 38.3087 18.1373 38.4507C18.0014 38.5721 18.022 38.4536 18.0576 38.2497C18.06 38.2358 18.0626 38.2208 18.0651 38.2061C18.0688 38.1845 18.0726 38.1621 18.0763 38.1391C18.0874 38.061 18.1356 37.935 18.188 37.7981C18.3108 37.477 18.4564 37.0964 18.1997 37.1379C18.1567 37.1449 18.0841 37.165 17.9859 37.1921C17.2485 37.396 15.0687 37.9988 13.1418 36.4436C10.9584 34.6813 10.4087 33.1606 10.3373 31.5832C10.266 30.0057 10.6316 28.7267 10.6316 28.7267C10.6316 28.7267 10.7224 28.5434 10.8006 28.8478C10.823 28.9338 10.8417 29.0474 10.8598 29.1564C10.9044 29.4259 10.9444 29.6678 11.0228 29.3984C11.1329 29.02 12.5245 26.5428 13.197 25.8427C13.6354 25.3827 14.224 24.6441 14.6623 23.9834L12.1172 22.5036V22.3431C11.1081 22.2233 10.1364 21.809 9.25387 21.4326C9.02521 21.3351 8.80248 21.2401 8.5867 21.1535C7.37389 20.6605 6.65428 20.7194 6.39687 20.7405C6.33203 20.74 6.2692 20.6923 6.25806 20.6287L6.1791 20.1719C6.16652 20.0909 6.21925 20.0162 6.29531 20.01C6.39621 20.0017 6.52593 19.9881 6.67206 19.9729C7.17831 19.9199 7.88147 19.8464 8.26538 19.9015C8.50373 19.9347 8.41524 19.7191 8.076 19.6765C8.03737 19.6717 7.99159 19.6652 7.93928 19.6578L7.93794 19.6576L7.9369 19.6575C7.52889 19.5997 6.72751 19.4863 5.82871 19.6377C4.8121 19.8088 3.49151 20.2219 2.82899 21.1147C2.16062 22.0079 1.94385 22.7352 1.90228 23.7296C1.8332 25.2781 2.59618 26.6858 2.86324 27.1786C2.89967 27.2458 2.9269 27.296 2.94149 27.3272C3.04139 27.5267 3.26768 27.5343 3.53012 27.5431C3.60119 27.5454 3.67492 27.5479 3.7495 27.5543C3.78009 27.5569 3.8141 27.5591 3.85139 27.5615C4.24079 27.5868 4.98709 27.6352 5.91202 28.4211C6.89291 29.2598 7.05066 29.6603 7.18883 30.0111L7.20011 30.0397C7.34157 30.3975 7.50618 30.1085 7.48309 29.8289C7.45464 29.5556 7.12691 28.7966 5.89991 27.9178C4.67338 27.0447 3.56256 25.5758 3.66551 24.1835C3.73081 23.3337 4.15002 22.4901 4.83483 22.1526C5.52013 21.8209 6.89625 21.4385 7.16233 21.5223C7.30976 21.5668 7.25007 21.5848 7.08079 21.6359C6.95184 21.6748 6.75929 21.7329 6.54628 21.8366C6.05364 22.0763 5.08056 22.5606 4.72361 23.0882C4.3359 23.6712 4.20937 24.35 4.31517 24.7753C4.50055 25.5225 5.04867 26.24 5.9765 26.9908C6.11293 27.102 6.24414 27.2062 6.36932 27.3056C7.09007 27.8778 7.61089 28.2912 7.77752 28.9721C7.84899 29.2627 7.89385 29.5374 7.93617 29.7965C8.00935 30.2447 8.07492 30.6462 8.25738 31.0028C8.5395 31.5661 8.87723 32.0897 9.34792 32.2975C9.8186 32.5052 10.0066 33.0704 9.65624 32.9642C9.44692 32.8959 9.25151 32.7337 9.08644 32.5967C8.97944 32.5079 8.88519 32.4296 8.80816 32.3944C8.61229 32.3049 8.37434 32.3478 8.59009 32.5354C8.80584 32.723 8.98256 32.9372 9.15287 33.2165C9.19137 33.2785 9.22723 33.3452 9.26187 33.4097C9.38003 33.6295 9.48393 33.8228 9.62957 33.7111C9.81742 33.5609 10.1554 33.4452 9.97274 33.7299C9.97274 33.7299 9.59697 34.5289 8.80259 34.3242C8.1947 34.1616 7.66682 33.613 7.20239 33.1304C7.06403 32.9867 6.93124 32.8487 6.80371 32.7286C6.35371 32.3017 6.17957 32.3641 5.96903 32.4395C5.8148 32.4948 5.64104 32.5571 5.32498 32.4391C5.13565 32.3702 4.97806 32.1216 4.81126 31.8585C4.69988 31.6828 4.58439 31.5006 4.4526 31.3612C4.36162 31.2667 4.25183 31.1076 4.12406 30.9224C3.78138 30.4257 3.30937 29.7416 2.72396 29.6144C2.72396 29.6144 1.73755 29.3668 1.53727 29.2952C1.36937 29.2352 1.47657 29.198 1.66045 29.1343C1.6959 29.122 1.7342 29.1087 1.77393 29.0941C1.84578 29.0694 1.97404 29.054 2.11396 29.0373C2.45365 28.9966 2.86204 28.9478 2.69861 28.7369C2.67171 28.7002 2.61658 28.6412 2.54144 28.5609C2.00476 27.9868 0.447103 26.3206 0.860341 23.8794C1.31974 21.0975 2.36918 19.8974 3.69849 19.0907C5.02781 18.2841 6.30728 18.0152 6.30728 18.0152C6.30728 18.0152 6.50131 18.011 6.27731 18.2229C6.21317 18.2835 6.1242 18.3534 6.03885 18.4205C5.82626 18.5875 5.63607 18.7369 5.90875 18.6811C6.29055 18.5971 9.1018 18.6895 10.0311 18.9594C10.5803 19.1202 11.388 19.2847 12.1172 19.3757ZM16.9988 16.851C16.9988 16.8509 16.9989 16.851 16.9988 16.851L17.2884 16.6851L19.7504 18.0962V20.9119L17.2888 22.3227L15.7417 21.436C15.7417 21.4362 15.7418 21.4359 15.7417 21.436L15.1258 21.0836L14.8268 20.9117V19.2287C14.827 19.2287 14.8266 19.2288 14.8268 19.2287L14.8262 18.2495C14.8264 18.2495 14.826 18.2495 14.8262 18.2495L14.8268 18.096L16.304 17.2493C16.304 17.2493 16.304 17.2493 16.304 17.2493L16.9988 16.851Z" fill="#2373D0"/>
<path d="M85.5312 25.2121L89.6344 13.8188H92.7213L96.8321 25.2121H94.6997L91.0431 14.758H91.2895L87.6328 25.2121H85.5312ZM88.2333 21.9481L88.726 20.2699H93.622L94.1147 21.9481H88.2333Z" fill="#1A1A1A"/>
<path d="M76.4473 25.2121V14.0806C76.786 14.0087 77.1504 13.942 77.5404 13.8804C77.9356 13.8189 78.3436 13.7727 78.7644 13.7419C79.1852 13.706 79.6112 13.688 80.0423 13.688C81.6897 13.688 82.9265 13.9728 83.7528 14.5425C84.5842 15.1121 84.9999 16.0154 84.9999 17.2522C84.9999 18.0477 84.8049 18.7123 84.4148 19.246C84.0248 19.7798 83.4603 20.1826 82.7212 20.4546C81.9822 20.7266 81.0841 20.8626 80.0269 20.8626C79.76 20.8626 79.5111 20.8575 79.2802 20.8472C79.0492 20.8318 78.8106 20.8165 78.5643 20.8011V25.2121H76.4473ZM83.5603 25.2121L79.5881 19.9004H81.936L85.9545 25.2121H83.5603ZM80.0962 19.2768C81.0969 19.2768 81.8283 19.1152 82.2901 18.7918C82.7572 18.4685 82.9907 17.9579 82.9907 17.2599C82.9907 16.7826 82.8906 16.3977 82.6904 16.1052C82.4954 15.8075 82.1952 15.592 81.7898 15.4586C81.3843 15.32 80.8634 15.2507 80.227 15.2507C79.8986 15.2507 79.6009 15.2661 79.3341 15.2969C79.0672 15.3226 78.8106 15.3585 78.5643 15.4047V19.1998C78.7439 19.2152 78.9107 19.2306 79.0646 19.246C79.2237 19.2563 79.3854 19.264 79.5496 19.2691C79.7138 19.2743 79.896 19.2768 80.0962 19.2768Z" fill="#1A1A1A"/>
<path d="M67.7295 25.3124C67.4011 25.3124 67.0598 25.3047 66.7057 25.2893C66.3567 25.279 65.9975 25.2585 65.6279 25.2277C65.2636 25.202 64.8915 25.1661 64.5117 25.1199V14.0808C64.8761 14.0038 65.2661 13.9371 65.6818 13.8807C66.0975 13.8191 66.5184 13.7755 66.9443 13.7498C67.3754 13.719 67.7911 13.7036 68.1914 13.7036C70.3058 13.7036 71.9071 14.1783 72.9951 15.1278C74.0831 16.0772 74.6271 17.5398 74.6271 19.5157C74.6271 20.8654 74.373 21.9663 73.8649 22.8182C73.3569 23.6701 72.5896 24.2988 71.5632 24.7042C70.5419 25.1097 69.264 25.3124 67.7295 25.3124ZM68.2607 23.5726C69.1999 23.5726 69.9774 23.434 70.5932 23.1569C71.2091 22.8746 71.6684 22.4359 71.9712 21.8405C72.274 21.2401 72.4254 20.46 72.4254 19.5003C72.4254 18.556 72.2714 17.7836 71.9635 17.1832C71.6607 16.5827 71.2014 16.1414 70.5855 15.8591C69.9748 15.5768 69.2101 15.4357 68.2915 15.4357C68.04 15.4357 67.7732 15.4485 67.4909 15.4742C67.2086 15.4998 66.9341 15.5332 66.6672 15.5743V23.4956C66.9084 23.5213 67.1547 23.5418 67.4062 23.5572C67.6628 23.5675 67.9476 23.5726 68.2607 23.5726Z" fill="#1A1A1A"/>
<path d="M57.2966 25.2121V19.4616L57.7354 20.9781L52.9395 13.8188H55.2489L58.7438 19.0382H58.0895L61.5306 13.8188H63.686L59.0056 20.9781L59.4444 19.4847V25.2121H57.2966Z" fill="#1A1A1A"/>
<path d="M42.3418 25.2121V13.8188H44.4973V18.4454H50.063V13.8188H52.2108V25.2121H50.063V20.3161H44.4973V25.2121H42.3418Z" fill="#1A1A1A"/>
</svg>
